<svg xmlns="http://www.w3.org/2000/svg" xmlns:xlink="http://www.w3.org/1999/xlink" width="65px" height="80px" viewBox="0 0 65 80"><title>Group</title><g id="HOME-4-Disease" stroke="none" stroke-width="1" fill="none" fill-rule="evenodd"><g id="Home-4---Diseass" transform="translate(-688.000000, -9216.000000)" fill="#FEC723" fill-rule="nonzero"><g id="Group-4-Copy-2" transform="translate(320.000000, 8954.000000)"><g id="Group-28" transform="translate(110.000000, 249.000000)"><g id="Group" transform="translate(258.000000, 13.000000)"><path d="M50.9702703,79.2888889 L11.4945946,32.3555556 C6.60540541,26.4888889 5.51891892,18.6666667 8.77837838,11.7333333 C10.7702703,7.64444444 14.0297297,4.44444444 18.0135135,2.48888889 C18.1945946,2.48888889 18.3756757,2.31111111 18.3756757,2.31111111 C20.9108108,1.24444444 23.627027,0.711111111 26.5243243,0.711111111 C34.3108108,0.711111111 41.0108108,4.97777778 44.2702703,11.7333333 C47.5297297,18.6666667 46.6243243,26.4888889 41.5540541,32.3555556 L38.4756757,36.0888889 L64.9135135,67.0222222 L50.9702703,79.2888889 Z M16.2027027,8.71111111 C14.7540541,10.1333333 13.3054054,11.7333333 12.4,13.6888889 C9.86486486,19.0222222 10.5891892,25.2444444 14.572973,29.8666667 L51.3324324,73.4222222 L59.1189189,66.6666667 L34.3108108,37.5111111 C34.3108108,37.5111111 34.3108108,37.5111111 34.3108108,37.5111111 L20.9108108,21.6888889 C17.6513514,17.9555556 16.0216216,13.3333333 16.2027027,8.71111111 Z M20.9108108,5.86666667 C19.8243243,10.4888889 20.9108108,15.2888889 23.9891892,19.0222222 L35.9405405,32.8888889 L38.6567568,29.6888889 C42.4594595,25.0666667 43.3648649,18.8444444 40.8297297,13.5111111 C38.2945946,8.17777778 32.8621622,4.8 26.7054054,4.8 C24.5324324,4.8 22.7216216,5.15555556 20.9108108,5.86666667 Z" id="Shape"></path><path d="M2.07837838,78.4 C1.53513514,78.4 1.17297297,78.2222222 0.810810811,77.8666667 C-0.0945945946,77.1555556 -0.275675676,75.9111111 0.448648649,75.0222222 L25.0756757,45.8666667 C25.8,44.9777778 27.0675676,44.8 27.972973,45.5111111 C28.8783784,46.2222222 29.0594595,47.4666667 28.3351351,48.3555556 L3.70810811,77.6888889 C3.16486486,78.0444444 2.62162162,78.4 2.07837838,78.4 Z" id="Path"></path></g></g></g></g></g></svg>