<svg xmlns="http://www.w3.org/2000/svg" xmlns:xlink="http://www.w3.org/1999/xlink" width="288px" height="165px" viewBox="0 0 288 165"><title>Fill 3952</title><g id="HOME-4-Disease" stroke="none" stroke-width="1" fill="none" fill-rule="evenodd"><g id="Home-4---Diseass" transform="translate(-41.000000, -1877.000000)" fill="#FEE8B5"><g id="Section-Copy-6" transform="translate(-3.000000, 1129.000000)"><path d="M205.60588,836.90341 C207.255821,836.90341 208.987951,837.495037 210.157087,838.455035 C211.073493,839.210914 211.991953,839.966793 212.910414,840.722672 C214.141192,841.735294 214.716514,843.062069 214.794593,844.466983 C214.870618,845.878276 214.034346,847.203456 212.910414,848.212889 C211.823466,849.187239 209.937232,849.764514 208.361261,849.764514 C206.709265,849.764514 204.977135,849.172887 203.810053,848.212889 C202.893648,847.45701 201.973132,846.701131 201.056727,845.946847 C199.823894,844.93263 199.248572,843.605855 199.170493,842.199346 C199.094468,840.789648 199.93074,839.464468 201.056727,838.455035 C202.14162,837.480685 204.027854,836.90341 205.60588,836.90341 Z M241.407342,793.829478 C249.700197,793.829478 249.685814,804.424539 241.407342,804.424539 C233.112433,804.424539 233.124761,793.829478 241.407342,793.829478 Z M163.708059,799.742556 L163.827233,799.922755 L160.042436,802.863347 C157.25418,804.998625 156.985011,806.449785 156.939807,807.870645 C156.923369,808.408053 156.915151,808.703069 155.534378,809.747585 L155.322742,809.926189 C151.54,813.519006 147.529184,816.882189 143.107424,820.55155 L142.899897,820.714207 C138.755524,823.967357 134.467321,827.333729 130.057889,830.382759 C122.09379,836.085339 113.053016,841.792703 102.440381,847.814219 L95.3146081,851.781785 L87.981308,855.594668 C86.0067209,856.66151 83.9293977,857.670943 81.9239898,858.646888 L80.7671817,859.208216 C79.7809155,859.680241 78.8028682,860.168214 77.8248209,860.657781 C76.3310386,861.404092 74.9173904,862.11213 73.3989514,862.791464 C66.3492028,866.153052 59.1063105,869.344009 52.03396,872.43769 C51.6702744,874.807387 49.623772,876.96818 45.8821246,876.96818 C45.1979025,876.96818 44.5732672,876.89004 44,876.756087 L45.8143188,880.135216 C48.5429886,879.336281 51.1586488,878.650568 53.3921308,878.071699 L57.1399423,877.100538 C58.3522278,876.746519 59.5419114,876.376553 60.7398139,876.000208 C63.4869762,875.129512 65.7677167,874.332172 67.9559948,873.477422 C69.6141549,872.804467 71.3401207,871.997558 73.2797776,870.983341 C75.4721651,872.367524 77.8926267,871.618024 79.0576537,871.098158 C82.3554812,869.777762 85.6348163,868.181486 88.8052512,866.637835 L90.8681913,865.636375 L102.123954,859.689809 C106.09573,857.489149 109.171648,855.927956 111.861278,854.749487 C114.94336,853.317463 117.37204,852.465904 119.284986,852.145373 L119.517169,852.097532 C120.057561,851.963579 120.733564,851.872682 121.516413,851.765839 C122.284879,851.662184 123.156081,851.542583 124.134128,851.352816 L127.247031,854.708025 L129.322299,853.630021 C131.177712,852.666834 133.098877,851.636669 135.057026,850.563449 L120.76644,860.346818 C121.214369,860.568479 121.639696,860.826817 122.032148,861.125022 C123.295802,862.080236 123.842358,863.501097 123.918382,864.870928 C123.988243,866.18973 123.147862,867.696703 122.032148,868.61524 C120.867121,869.576832 119.132937,870.168459 117.482995,870.168459 C116.564535,870.168459 115.648129,870.168459 114.727614,870.168459 C112.987265,870.168459 111.438006,869.567264 110.178461,868.61524 C109.940114,868.436635 109.738751,868.235706 109.549717,868.026802 L66.0040097,897.837772 C63.0637036,898.977969 60.1069597,900.097435 57.1152856,901.167466 L59.2521957,905.216361 C66.4745408,902.631383 73.5407272,899.840691 80.4733566,896.868206 C79.3966827,898.17106 79.6555775,899.478699 80.3130883,900.285607 C82.9636787,903.530783 91.4620057,900.958563 94.9940715,899.701954 L95.1461209,899.642951 C95.351593,899.928399 95.5981596,900.154843 95.8796564,900.333448 C94.7536692,901.003214 93.6543933,901.759093 92.624978,902.658493 L80.7815648,913 L95.8776017,906.101409 C98.1521781,905.063272 100.545928,903.900749 102.828724,902.784473 C104.182785,902.097165 105.54301,901.376369 106.915564,900.646005 C107.944979,900.100624 108.978504,899.548865 110.00381,899.021025 C111.294175,898.367206 112.574266,897.705413 113.844084,897.048404 C117.283687,895.26874 120.536311,893.584757 123.606065,892.288281 L124.093034,892.181438 C125.393672,891.891206 127.505926,891.41918 128.340142,891.482967 L129.772283,893.203628 L132.018093,891.774794 C144.05876,884.121919 155.787109,879.344254 166.876439,877.577348 C168.779111,877.355687 171.540656,876.197949 178.578077,871.458556 C180.721151,869.943609 182.989563,868.297898 185.175786,866.696838 C195.328164,860.756651 205.782586,853.939389 217.081498,845.894223 C227.89755,838.226996 238.395121,830.263158 248.122171,822.798456 L252.33435,819.572416 C271.110393,805.191581 288.848801,791.604898 307.240611,780.349638 C310.382279,779.053162 315.833455,776.831772 318.584727,775.753767 L318.839512,775.653302 L319.065531,775.51297 C322.412672,773.396828 325.796798,771.141949 329.187088,768.794579 C340.301344,743.176081 318.479972,741.228684 263.722971,762.952389 C208.96597,784.676094 185.472521,786.623491 193.242622,768.794579 C186.026441,775.050513 179.036279,781.504187 172.415968,787.624574 C170.200978,789.668955 168.014755,791.691011 165.853188,793.673199 C163.958735,795.202498 162.495773,797.726879 163.708059,799.742556 Z" id="Fill-3952"></path></g></g></g></svg>