<svg xmlns="http://www.w3.org/2000/svg" xmlns:xlink="http://www.w3.org/1999/xlink" id="Layer_1" x="0px" y="0px" width="640px" height="638px" viewBox="0 0 640 638" style="enable-background:new 0 0 640 638;" xml:space="preserve">
<style type="text/css">
	.st0{fill-rule:evenodd;clip-rule:evenodd;fill:#FEE8B5;}
	.st1{fill:#FD6A01;}
</style>
<title>illustration-01</title>
<g id="HOME-4-Disease">
	<g id="Home-4---Diseass" transform="translate(-720.000000, -8035.000000)">
		<g id="Group-20-Copy" transform="translate(80.000000, 7899.000000)">
			<g id="Group-22" transform="translate(0.000000, 136.000000)">
				<g id="illustration-01" transform="translate(640.000000, 0.000000)">
					<rect id="Rectangle-Copy-4" class="st0" width="640" height="638"></rect>
					<g id="noun_Breast-Cancer_3099534" transform="translate(71.000000, 70.000000)">
						<g id="Group">
							<g id="Path">
								<path d="M168.5,373.5c-16.9,0-32.7-4.3-46.7-12.6c-43.4-25.6-61.4-81-41.3-127.4l-1.4-1.1c-4.7-3.6-7.2-8.3-7.9-14          c-0.7-5.8,1.1-11.2,4.7-15.5c6.5-8.3,18.7-9.7,27.7-4c18.3-20.9,39.9-34.9,51.3-41.8c13.3-7.9,24.8-16.9,34.1-27.7          c20.8-23.8,26.6-46.4,28-55.4v-0.4c0.4-2.2,2.5-3.6,4.7-3.2c2.2,0.4,3.6,2.5,3.2,4.7v0.4c-1.4,9.4-7.5,34.2-29.8,59.4          c-9.7,11.2-21.9,21.2-35.9,29.2c-11.9,6.8-34.1,21.2-52.1,42.8c-1.4,1.8-4,1.8-5.7,0.7l-1.4-1.1c-5.7-4.3-13.6-3.6-18,1.8          c-2.2,2.2-2.9,5.4-2.5,9c0.4,3.2,2.2,6.5,4.7,8.6l3.9,3.2c1.4,1.1,2.2,3.2,1.1,5c-20.1,42.8-4,95.8,37,119.9          c12.6,7.6,26.6,11.2,41.7,11.2c4.7-3.2,25.5-18,39.5-40.3c1.1-1.8,3.6-2.5,5.7-1.4c1.8,1.1,2.5,3.6,1.4,5.8          c-16.9,26.6-42,42.8-43.1,43.6c-0.7,0.4-1.4,0.7-2.2,0.7C169.2,373.5,168.8,373.5,168.5,373.5z"></path>
								<path d="M169.2,430c-1.8,0-3.6-1.4-4-3.2c-6.1-31.3-0.4-57.2,0-58.3c0.4-2.2,2.9-3.6,5-3.2c2.2,0.4,3.6,2.9,3.2,5          c0,0.4-5.7,25.2,0,54.7c0.4,2.2-1.1,4.3-3.2,4.7C169.9,430,169.5,430,169.2,430z"></path>
							</g>
							<path d="M113.5,216.5c-1.1,0-1.8-0.4-2.5-1.1l-9.7-8.3c-1.8-1.4-1.8-4-0.4-5.8c1.4-1.8,3.9-1.8,5.7-0.4l9.7,8.3         c1.8,1.4,1.8,4,0.4,5.8C115.7,216.2,114.6,216.5,113.5,216.5z"></path>
						</g>
						<path d="M385,262c-2,0-3.7-1.8-3.7-4c-2-113.6,6-183.7,6-184.4c0.3-2.2,2-4,4.3-3.6c2,0.4,3.7,2.5,3.3,4.7        c0,0.7-8,70.5-6.3,183.3C389,260.2,387,262,385,262L385,262z"></path>
						<g transform="translate(113.000000, 100.000000)">
							<path id="Shape" class="st1" d="M285.9,328.6l-79-93.9c-9.8-11.7-12-27.4-5.4-41.2c4-8.2,10.5-14.6,18.5-18.5         c0.4,0,0.7-0.4,0.7-0.4c5.1-2.1,10.5-3.2,16.3-3.2c15.6,0,29,8.5,35.5,22c6.5,13.9,4.7,29.5-5.4,41.2l-6.2,7.5l52.9,61.9         L285.9,328.6z M216.4,187.4c-2.9,2.8-5.8,6-7.6,10c-5.1,10.7-3.6,23.1,4.3,32.4l73.5,87.1l15.6-13.5L252.6,245l0,0         l-26.8-31.6C219.3,205.9,216,196.7,216.4,187.4z M225.8,181.7c-2.2,9.2,0,18.8,6.2,26.3l23.9,27.7l5.4-6.4         c7.6-9.2,9.4-21.7,4.3-32.4c-5.1-10.7-15.9-17.4-28.2-17.4C233.1,179.6,229.4,180.3,225.8,181.7z"></path>
							<path class="st1" d="M188.2,326.8c-1.1,0-1.8-0.4-2.5-1.1c-1.8-1.4-2.2-3.9-0.7-5.7l49.3-58.3c1.4-1.8,4-2.1,5.8-0.7         c1.8,1.4,2.2,3.9,0.7,5.7l-49.3,58.7C190.3,326.1,189.2,326.8,188.2,326.8z"></path>
						</g>
					</g>
				</g>
			</g>
		</g>
	</g>
</g>
</svg>