<svg xmlns="http://www.w3.org/2000/svg" xmlns:xlink="http://www.w3.org/1999/xlink" width="164px" height="68px" viewBox="0 0 164 68"><title>LOGO</title><g id="HOME-3" stroke="none" stroke-width="1" fill="none" fill-rule="evenodd"><g id="Homelessness----V2" transform="translate(-49.000000, -16.000000)"><g id="top-nav" transform="translate(49.000000, 0.000000)"><g id="LOGO" transform="translate(0.000000, 16.000000)"><g id="logo" transform="translate(0.880000, 18.280000)"><path d="M10.12,34.72 C13.24,34.72 16.1,33.82 18.7,32.02 C21.3,30.22 23.2133333,27.5733333 24.44,24.08 C24.5466667,23.84 24.6,23.5733333 24.6,23.28 C24.6,22.6666667 24.3533333,22.1666667 23.86,21.78 C23.3666667,21.3933333 22.7866667,21.2 22.12,21.2 C21.5866667,21.2 21.1,21.3333333 20.66,21.6 C20.22,21.8666667 19.9066667,22.28 19.72,22.84 C18.76,25.24 17.4533333,27.02 15.8,28.18 C14.1466667,29.34 12.4666667,29.92 10.76,29.92 C9.4,29.92 8.30666667,29.5733333 7.48,28.88 C6.65333333,28.1866667 6.24,27.32 6.24,26.28 C6.24,25.8266667 6.32,25.3466667 6.48,24.84 L6.48,24.84 L8.92,17.92 C9.10666667,17.4666667 9.37333333,17.0933333 9.72,16.8 C10.0666667,16.5066667 10.4,16.36 10.72,16.36 C11.12,16.36 11.42,16.4666667 11.62,16.68 C11.82,16.8933333 11.92,17.1733333 11.92,17.52 C11.92,17.92 11.7733333,18.4133333 11.48,19 C11.2666667,19.4266667 11.16,19.8266667 11.16,20.2 C11.16,20.8933333 11.4333333,21.48 11.98,21.96 C12.5266667,22.44 13.16,22.68 13.88,22.68 C14.52,22.68 15.1133333,22.4733333 15.66,22.06 C16.2066667,21.6466667 16.6533333,21 17,20.12 C17.3733333,19.1066667 17.56,18.12 17.56,17.16 C17.56,15.96 17.26,14.9066667 16.66,14 C16.06,13.0933333 15.26,12.4066667 14.26,11.94 C13.26,11.4733333 12.1733333,11.24 11,11.24 C9.29333333,11.24 7.70666667,11.7466667 6.24,12.76 C4.77333333,13.7733333 3.69333333,15.28 3,17.28 L3,17.28 L0.72,24 C0.4,24.96 0.24,25.8933333 0.24,26.8 C0.24,28.32 0.653333333,29.68 1.48,30.88 C2.30666667,32.08 3.47333333,33.02 4.98,33.7 C6.48666667,34.38 8.2,34.72 10.12,34.72 Z M34.2,34.72 C36.1733333,34.72 38.0933333,34.1 39.96,32.86 C41.8266667,31.62 43.3466667,29.52 44.52,26.56 L44.52,26.56 L44.84,25.68 C45.0266667,25.1733333 45.1866667,24.7066667 45.32,24.28 C45.4533333,23.8533333 45.52,23.52 45.52,23.28 C45.52,22.64 45.3066667,22.1333333 44.88,21.76 C44.4533333,21.3866667 43.9333333,21.2 43.32,21.2 C42.7066667,21.2 42.14,21.3866667 41.62,21.76 C41.1,22.1333333 40.72,22.68 40.48,23.4 C39.76,25.6666667 38.86,27.3266667 37.78,28.38 C36.7,29.4333333 35.64,29.96 34.6,29.96 C34.2533333,29.96 33.9866667,29.8733333 33.8,29.7 C33.6133333,29.5266667 33.52,29.28 33.52,28.96 C33.52,28.6666667 33.5866667,28.28 33.72,27.8 L33.72,27.8 L38.2,14.84 C38.36,14.36 38.44,13.92 38.44,13.52 C38.44,12.6933333 38.1533333,12.04 37.58,11.56 C37.0066667,11.08 36.32,10.84 35.52,10.84 C34.9333333,10.84 34.38,10.9733333 33.86,11.24 C33.34,11.5066667 32.92,11.88 32.6,12.36 C32.0933333,12.04 31.46,11.7733333 30.7,11.56 C29.94,11.3466667 29.0933333,11.24 28.16,11.24 C26.7466667,11.24 25.42,11.6266667 24.18,12.4 C22.94,13.1733333 22.0666667,14.2933333 21.56,15.76 L21.56,15.76 L17.8,26.52 C17.5333333,27.32 17.4,28.04 17.4,28.68 C17.4,29.7733333 17.6733333,30.78 18.22,31.7 C18.7666667,32.62 19.5133333,33.3533333 20.46,33.9 C21.4066667,34.4466667 22.4533333,34.72 23.6,34.72 C24.5333333,34.72 25.46,34.5266667 26.38,34.14 C27.3,33.7533333 28.1333333,33.2266667 28.88,32.56 C29.44,33.36 30.24,33.92 31.28,34.24 C32.32,34.56 33.2933333,34.72 34.2,34.72 Z M25,29.96 C24.5733333,29.96 24.2466667,29.8333333 24.02,29.58 C23.7933333,29.3266667 23.68,28.96 23.68,28.48 C23.68,28.0533333 23.76,27.6 23.92,27.12 L23.92,27.12 L26.48,19.08 C27.04,17.24 27.88,16.32 29,16.32 C29.4,16.32 29.7666667,16.5133333 30.1,16.9 C30.4333333,17.2866667 30.6,17.8 30.6,18.44 C30.6,19 30.44,19.7866667 30.12,20.8 L30.12,20.8 L28.2,26.76 C27.8266667,27.9066667 27.34,28.7266667 26.74,29.22 C26.14,29.7133333 25.56,29.96 25,29.96 Z M53.72,34.72 C55.9066667,34.72 57.94,33.7866667 59.82,31.92 C61.7,30.0533333 63.2266667,27.44 64.4,24.08 C64.48,23.84 64.52,23.6266667 64.52,23.44 C64.52,22.8533333 64.2533333,22.3733333 63.72,22 C63.1866667,21.6266667 62.5866667,21.44 61.92,21.44 C61.36,21.44 60.86,21.58 60.42,21.86 C59.98,22.14 59.68,22.56 59.52,23.12 C58.7466667,25.1466667 57.8866667,26.7933333 56.94,28.06 C55.9933333,29.3266667 55.1066667,29.96 54.28,29.96 C54.0133333,29.96 53.8066667,29.8533333 53.66,29.64 C53.5133333,29.4266667 53.44,29.1733333 53.44,28.88 C53.44,28.5866667 53.4933333,28.2933333 53.6,28 L53.6,28 L55.96,21.44 C56.2266667,20.56 56.36,19.8266667 56.36,19.24 C56.36,17.5866667 55.6466667,16.3 54.22,15.38 C52.7933333,14.46 51.16,13.72 49.32,13.16 C49.4266667,12.8666667 49.48,12.5333333 49.48,12.16 C49.48,11.2533333 49.1333333,10.46 48.44,9.78 C47.7466667,9.1 46.9466667,8.76 46.04,8.76 C44.8933333,8.76 43.98,9.18666667 43.3,10.04 C42.62,10.8933333 42.28,11.92 42.28,13.12 C42.28,14.1866667 42.6133333,15.1333333 43.28,15.96 L43.28,15.96 L40.36,23.84 C40.28,24.16 40.24,24.4533333 40.24,24.72 C40.24,25.36 40.4533333,25.8533333 40.88,26.2 C41.3066667,26.5466667 41.8133333,26.72 42.4,26.72 C42.9866667,26.72 43.5333333,26.5533333 44.04,26.22 C44.5466667,25.8866667 44.92,25.4133333 45.16,24.8 L45.16,24.8 L47.4,18.8 C47.5333333,18.8266667 47.8066667,18.9066667 48.22,19.04 C48.6333333,19.1733333 49.0333333,19.3666667 49.42,19.62 C49.8066667,19.8733333 50,20.2666667 50,20.8 C50,20.9866667 49.96,21.2266667 49.88,21.52 L49.88,21.52 L48.12,26.4 C47.8,27.3066667 47.64,28.16 47.64,28.96 C47.64,30.08 47.9133333,31.08 48.46,31.96 C49.0066667,32.84 49.74,33.52 50.66,34 C51.58,34.48 52.6,34.72 53.72,34.72 Z M68.92,7.56 C69.8266667,7.56 70.6,7.23333333 71.24,6.58 C71.88,5.92666667 72.2,5.14666667 72.2,4.24 C72.2,3.33333333 71.88,2.56666667 71.24,1.94 C70.6,1.31333333 69.8266667,1 68.92,1 C68.0133333,1 67.24,1.31333333 66.6,1.94 C65.96,2.56666667 65.64,3.33333333 65.64,4.24 C65.64,5.14666667 65.96,5.92666667 66.6,6.58 C67.24,7.23333333 68.0133333,7.56 68.92,7.56 Z M64.4,34.72 C66.6133333,34.72 68.68,33.9 70.6,32.26 C72.52,30.62 74.1333333,27.88 75.44,24.04 C75.52,23.8 75.56,23.56 75.56,23.32 C75.56,22.7333333 75.32,22.2533333 74.84,21.88 C74.36,21.5066667 73.8,21.32 73.16,21.32 C72.6,21.32 72.08,21.4733333 71.6,21.78 C71.12,22.0866667 70.76,22.5333333 70.52,23.12 C69.64,25.52 68.7133333,27.26 67.74,28.34 C66.7666667,29.42 65.8266667,29.96 64.92,29.96 C64.4666667,29.96 64.1,29.8333333 63.82,29.58 C63.54,29.3266667 63.4,29 63.4,28.6 C63.4,28.4133333 63.44,28.2 63.52,27.96 L63.52,27.96 L67.92,15.4 C68.16,14.6266667 68.28,14.1333333 68.28,13.92 C68.28,13.0933333 68.0133333,12.44 67.48,11.96 C66.9466667,11.48 66.32,11.24 65.6,11.24 C64.9333333,11.24 64.3066667,11.4733333 63.72,11.94 C63.1333333,12.4066667 62.6933333,13.0933333 62.4,14 C61.68,16.1333333 60.8533333,18.5066667 59.92,21.12 C59.2533333,23.1466667 58.6666667,24.8533333 58.16,26.24 C57.7866667,27.4933333 57.6,28.3466667 57.6,28.8 C57.6,30.6133333 58.2533333,32.0533333 59.56,33.12 C60.8666667,34.1866667 62.48,34.72 64.4,34.72 Z M85.72,34.72 C87.9066667,34.72 90.0066667,33.86 92.02,32.14 C94.0333333,30.42 95.6666667,27.72 96.92,24.04 C97.0266667,23.6666667 97.08,23.4 97.08,23.24 C97.08,22.6533333 96.84,22.18 96.36,21.82 C95.88,21.46 95.3066667,21.28 94.64,21.28 C94.0533333,21.28 93.52,21.4333333 93.04,21.74 C92.56,22.0466667 92.24,22.5066667 92.08,23.12 C91.2266667,25.4133333 90.2933333,27.1266667 89.28,28.26 C88.2666667,29.3933333 87.28,29.96 86.32,29.96 C85.9466667,29.96 85.6466667,29.8466667 85.42,29.62 C85.1933333,29.3933333 85.08,29.1066667 85.08,28.76 C85.08,28.52 85.1466667,28.2 85.28,27.8 L85.28,27.8 L93.44,4.24 C93.68,3.52 93.8,2.98666667 93.8,2.64 C93.8,1.81333333 93.52,1.16666667 92.96,0.7 C92.4,0.233333333 91.7466667,2.27373675e-13 91,2.27373675e-13 C90.36,2.27373675e-13 89.7666667,0.246666667 89.22,0.74 C88.6733333,1.23333333 88.2266667,1.98666667 87.88,3 L87.88,3 L84.24,13.32 C83.6266667,12.6533333 82.9,12.14 82.06,11.78 C81.22,11.42 80.3333333,11.24 79.4,11.24 C78.0133333,11.24 76.7133333,11.6266667 75.5,12.4 C74.2866667,13.1733333 73.4266667,14.28 72.92,15.72 L72.92,15.72 L69.12,26.52 C68.8533333,27.24 68.72,28 68.72,28.8 C68.72,29.9466667 69,30.9666667 69.56,31.86 C70.12,32.7533333 70.88,33.4533333 71.84,33.96 C72.8,34.4666667 73.8533333,34.72 75,34.72 C75.9866667,34.72 76.9666667,34.54 77.94,34.18 C78.9133333,33.82 79.7866667,33.2666667 80.56,32.52 C81.1733333,33.2133333 81.94,33.7533333 82.86,34.14 C83.78,34.5266667 84.7333333,34.72 85.72,34.72 Z M77.64,28.04 C76.9733333,28.4933333 76.3866667,28.6666667 75.88,28.56 C75.24,28.4 74.92,27.92 74.92,27.12 C74.92,26.6933333 75,26.24 75.16,25.76 L75.16,25.76 L77.44,19.08 C77.7866667,18.04 78.1866667,17.32 78.64,16.92 C79.0933333,16.52 79.5333333,16.32 79.96,16.32 C80.36,16.32 80.7266667,16.5133333 81.06,16.9 C81.3933333,17.2866667 81.56,17.8 81.56,18.44 C81.56,19.1333333 81.4,19.92 81.08,20.8 L81.08,20.8 L79.44,25.4 C78.9066667,26.7066667 78.3066667,27.5866667 77.64,28.04 Z M106.64,34.72 C108.613333,34.72 110.533333,34.1 112.4,32.86 C114.266667,31.62 115.786667,29.52 116.96,26.56 L116.96,26.56 L117.28,25.68 C117.466667,25.1733333 117.626667,24.7066667 117.76,24.28 C117.893333,23.8533333 117.96,23.52 117.96,23.28 C117.96,22.64 117.746667,22.1333333 117.32,21.76 C116.893333,21.3866667 116.373333,21.2 115.76,21.2 C115.146667,21.2 114.58,21.3866667 114.06,21.76 C113.54,22.1333333 113.16,22.68 112.92,23.4 C112.2,25.6666667 111.3,27.3266667 110.22,28.38 C109.14,29.4333333 108.08,29.96 107.04,29.96 C106.693333,29.96 106.426667,29.8733333 106.24,29.7 C106.053333,29.5266667 105.96,29.28 105.96,28.96 C105.96,28.6666667 106.026667,28.28 106.16,27.8 L106.16,27.8 L110.64,14.84 C110.8,14.36 110.88,13.92 110.88,13.52 C110.88,12.6933333 110.593333,12.04 110.02,11.56 C109.446667,11.08 108.76,10.84 107.96,10.84 C107.373333,10.84 106.82,10.9733333 106.3,11.24 C105.78,11.5066667 105.36,11.88 105.04,12.36 C104.533333,12.04 103.9,11.7733333 103.14,11.56 C102.38,11.3466667 101.533333,11.24 100.6,11.24 C99.1866667,11.24 97.86,11.6266667 96.62,12.4 C95.38,13.1733333 94.5066667,14.2933333 94,15.76 L94,15.76 L90.24,26.52 C89.9733333,27.32 89.84,28.04 89.84,28.68 C89.84,29.7733333 90.1133333,30.78 90.66,31.7 C91.2066667,32.62 91.9533333,33.3533333 92.9,33.9 C93.8466667,34.4466667 94.8933333,34.72 96.04,34.72 C96.9733333,34.72 97.9,34.5266667 98.82,34.14 C99.74,33.7533333 100.573333,33.2266667 101.32,32.56 C101.88,33.36 102.68,33.92 103.72,34.24 C104.76,34.56 105.733333,34.72 106.64,34.72 Z M97.44,29.96 C97.0133333,29.96 96.6866667,29.8333333 96.46,29.58 C96.2333333,29.3266667 96.12,28.96 96.12,28.48 C96.12,28.0533333 96.2,27.6 96.36,27.12 L96.36,27.12 L98.92,19.08 C99.48,17.24 100.32,16.32 101.44,16.32 C101.84,16.32 102.206667,16.5133333 102.54,16.9 C102.873333,17.2866667 103.04,17.8 103.04,18.44 C103.04,19 102.88,19.7866667 102.56,20.8 L102.56,20.8 L100.64,26.76 C100.266667,27.9066667 99.78,28.7266667 99.18,29.22 C98.58,29.7133333 98,29.96 97.44,29.96 Z M128.2,34.72 C130.386667,34.72 132.486667,33.86 134.5,32.14 C136.513333,30.42 138.146667,27.72 139.4,24.04 C139.506667,23.6666667 139.56,23.4 139.56,23.24 C139.56,22.6533333 139.32,22.18 138.84,21.82 C138.36,21.46 137.786667,21.28 137.12,21.28 C136.533333,21.28 136,21.4333333 135.52,21.74 C135.04,22.0466667 134.72,22.5066667 134.56,23.12 C133.706667,25.4133333 132.773333,27.1266667 131.76,28.26 C130.746667,29.3933333 129.76,29.96 128.8,29.96 C128.426667,29.96 128.126667,29.8466667 127.9,29.62 C127.673333,29.3933333 127.56,29.1066667 127.56,28.76 C127.56,28.52 127.626667,28.2 127.76,27.8 L127.76,27.8 L135.92,4.24 C136.16,3.52 136.28,2.98666667 136.28,2.64 C136.28,1.81333333 136,1.16666667 135.44,0.7 C134.88,0.233333333 134.226667,2.27373675e-13 133.48,2.27373675e-13 C132.84,2.27373675e-13 132.246667,0.246666667 131.7,0.74 C131.153333,1.23333333 130.706667,1.98666667 130.36,3 L130.36,3 L126.72,13.32 C126.106667,12.6533333 125.38,12.14 124.54,11.78 C123.7,11.42 122.813333,11.24 121.88,11.24 C120.493333,11.24 119.193333,11.6266667 117.98,12.4 C116.766667,13.1733333 115.906667,14.28 115.4,15.72 L115.4,15.72 L111.6,26.52 C111.333333,27.24 111.2,28 111.2,28.8 C111.2,29.9466667 111.48,30.9666667 112.04,31.86 C112.6,32.7533333 113.36,33.4533333 114.32,33.96 C115.28,34.4666667 116.333333,34.72 117.48,34.72 C118.466667,34.72 119.446667,34.54 120.42,34.18 C121.393333,33.82 122.266667,33.2666667 123.04,32.52 C123.653333,33.2133333 124.42,33.7533333 125.34,34.14 C126.26,34.5266667 127.213333,34.72 128.2,34.72 Z M120.12,28.04 C119.453333,28.4933333 118.866667,28.6666667 118.36,28.56 C117.72,28.4 117.4,27.92 117.4,27.12 C117.4,26.6933333 117.48,26.24 117.64,25.76 L117.64,25.76 L119.92,19.08 C120.266667,18.04 120.666667,17.32 121.12,16.92 C121.573333,16.52 122.013333,16.32 122.44,16.32 C122.84,16.32 123.206667,16.5133333 123.54,16.9 C123.873333,17.2866667 124.04,17.8 124.04,18.44 C124.04,19.1333333 123.88,19.92 123.56,20.8 L123.56,20.8 L121.92,25.4 C121.386667,26.7066667 120.786667,27.5866667 120.12,28.04 Z" id="caridad" fill="#1D1C1C" fill-rule="nonzero"></path><path d="M145.96,34.44 C146.866667,34.44 147.64,34.12 148.28,33.48 C148.92,32.84 149.24,32.0666667 149.24,31.16 C149.24,30.2533333 148.92,29.48 148.28,28.84 C147.64,28.2 146.866667,27.88 145.96,27.88 C145.053333,27.88 144.28,28.1933333 143.64,28.82 C143,29.4466667 142.68,30.2266667 142.68,31.16 C142.68,32.0666667 143,32.84 143.64,33.48 C144.28,34.12 145.053333,34.44 145.96,34.44 Z" id="." fill="#FEC415"></path></g></g></g></g></g></svg>